<svg width="180" height="180" viewBox="0 0 180 180" fill="none" xmlns="http://www.w3.org/2000/svg">
  <rect width="180" height="180" rx="40" fill="#2563eb"/>
  <path d="M90 35C64.5 35 44 55.5 44 81C44 106.5 64.5 127 90 127C115.5 127 136 106.5 136 81C136 55.5 115.5 35 90 35ZM90 115C70.1 115 54 98.9 54 79C54 59.1 70.1 43 90 43C109.9 43 126 59.1 126 79C126 98.9 109.9 115 90 115Z" fill="white"/>
  <path d="M90 63C81.2 63 74 70.2 74 79C74 87.8 81.2 95 90 95C98.8 95 106 87.8 106 79C106 70.2 98.8 63 90 63Z" fill="white"/>
  <path d="M70 91H110V99H70V91Z" fill="white"/>
</svg>