<svg width="512" height="512" viewBox="0 0 512 512" fill="none" xmlns="http://www.w3.org/2000/svg">
  <rect width="512" height="512" rx="64" fill="#2563eb"/>
  <path d="M256 120C200 120 155 165 155 221C155 277 200 322 256 322C312 322 357 277 357 221C357 165 312 120 256 120ZM256 290C218 290 187 259 187 221C187 183 218 152 256 152C294 152 325 183 325 221C325 259 294 290 256 290Z" fill="white"/>
  <path d="M256 172C234 172 216 190 216 212C216 234 234 252 256 252C278 252 296 234 296 212C296 190 278 172 256 172Z" fill="white"/>
  <path d="M206 242H306V266H206V242Z" fill="white"/>
</svg>