<svg width="192" height="192" viewBox="0 0 192 192" fill="none" xmlns="http://www.w3.org/2000/svg">
  <rect width="192" height="192" rx="24" fill="#2563eb"/>
  <path d="M96 40C70.5 40 50 60.5 50 86C50 111.5 70.5 132 96 132C121.5 132 142 111.5 142 86C142 60.5 121.5 40 96 40ZM96 120C76.1 120 60 103.9 60 84C60 64.1 76.1 48 96 48C115.9 48 132 64.1 132 84C132 103.9 115.9 120 96 120Z" fill="white"/>
  <path d="M96 68C87.2 68 80 75.2 80 84C80 92.8 87.2 100 96 100C104.8 100 112 92.8 112 84C112 75.2 104.8 68 96 68Z" fill="white"/>
  <path d="M76 96H116V104H76V96Z" fill="white"/>
</svg>